<svg width="25" height="24" viewBox="0 0 25 24" fill="none" xmlns="http://www.w3.org/2000/svg">
<path d="M10.25 12.375L8.375 14.25L10.25 16.125L12.125 14.25L10.25 12.375ZM14.75 4.875C12.1793 4.875 10.0733 6.86478 9.88822 9.38822C7.36478 9.57334 5.375 11.6793 5.375 14.25C5.375 16.9424 7.55761 19.125 10.25 19.125C12.8207 19.125 14.9267 17.1353 15.1118 14.6118C17.6353 14.4267 19.625 12.3207 19.625 9.75C19.625 7.05761 17.4424 4.875 14.75 4.875ZM14.9925 13.1164C14.5681 11.3344 13.1656 9.93184 11.3836 9.50749C11.5079 7.75672 12.9675 6.375 14.75 6.375C16.614 6.375 18.125 7.88604 18.125 9.75C18.125 11.5325 16.7433 12.9921 14.9925 13.1164ZM13.625 14.25C13.625 16.114 12.114 17.625 10.25 17.625C8.38604 17.625 6.875 16.114 6.875 14.25C6.875 12.386 8.38604 10.875 10.25 10.875C12.114 10.875 13.625 12.386 13.625 14.25ZM5.75 8.25C5.75 6.59314 7.09314 5.25 8.75 5.25H9.875V6.75H8.75C7.92157 6.75 7.25 7.42157 7.25 8.25V9.375H5.75V8.25ZM17.75 15.75V14.625H19.25V15.75C19.25 17.4068 17.9068 18.75 16.25 18.75H15.125V17.25H16.25C17.0785 17.25 17.75 16.5785 17.75 15.75Z" fill="#667085"/>
</svg>
