<svg width="25" height="24" viewBox="0 0 25 24" fill="none" xmlns="http://www.w3.org/2000/svg">
<path d="M5.29999 21C5.29999 19.0904 6.05856 17.2591 7.40882 15.9088C8.75908 14.5586 10.5904 13.8 12.5 13.8C14.4095 13.8 16.2409 14.5586 17.5912 15.9088C18.9414 17.2591 19.7 19.0904 19.7 21H5.29999ZM13.4 15.6747V19.2H17.5931C17.2714 18.2923 16.7131 17.4869 15.9759 16.8672C15.2388 16.2474 14.3495 15.8357 13.4 15.6747ZM11.6 19.2V15.6747C10.6505 15.8357 9.76121 16.2474 9.02405 16.8672C8.2869 17.4869 7.72861 18.2923 7.40689 19.2H11.6ZM12.5 12.9C9.51649 12.9 7.09999 10.4835 7.09999 7.50001C7.09999 4.51651 9.51649 2.10001 12.5 2.10001C15.4835 2.10001 17.9 4.51651 17.9 7.50001C17.9 10.4835 15.4835 12.9 12.5 12.9ZM12.5 11.1C14.489 11.1 16.1 9.48901 16.1 7.50001C16.1 5.51101 14.489 3.90001 12.5 3.90001C10.511 3.90001 8.89999 5.51101 8.89999 7.50001C8.89999 9.48901 10.511 11.1 12.5 11.1Z" fill="#667085"/>
</svg>
