<svg width="25" height="24" viewBox="0 0 25 24" fill="none" xmlns="http://www.w3.org/2000/svg">
<path d="M3.5 12C3.5 11.2215 3.599 10.4673 3.7844 9.74641C4.28162 9.77254 4.77638 9.66068 5.214 9.42319C5.65161 9.18569 6.01503 8.83182 6.26409 8.40068C6.51314 7.96954 6.63813 7.47792 6.62523 6.98019C6.61233 6.48245 6.46205 5.99797 6.191 5.58031C7.27905 4.50982 8.62171 3.73395 10.0925 3.32581C10.3184 3.76993 10.6628 4.14289 11.0875 4.40338C11.5123 4.66388 12.0008 4.80176 12.4991 4.80176C12.9974 4.80176 13.4859 4.66388 13.9107 4.40338C14.3354 4.14289 14.6798 3.76993 14.9057 3.32581C16.3765 3.73395 17.7192 4.50982 18.8072 5.58031C18.5358 5.99804 18.3853 6.48271 18.3723 6.98067C18.3594 7.47864 18.4844 7.97049 18.7336 8.40182C18.9828 8.83314 19.3464 9.18712 19.7843 9.42458C20.2222 9.66204 20.7173 9.77374 21.2147 9.74731C21.4001 10.4673 21.4991 11.2215 21.4991 12C21.4991 12.7785 21.4001 13.5327 21.2147 14.2536C20.7174 14.2273 20.2225 14.339 19.7848 14.5764C19.347 14.8139 18.9835 15.1677 18.7343 15.5989C18.4851 16.0301 18.3601 16.5218 18.3729 17.0196C18.3858 17.5174 18.5361 18.002 18.8072 18.4197C17.7192 19.4902 16.3765 20.2661 14.9057 20.6742C14.6798 20.2301 14.3354 19.8571 13.9107 19.5966C13.4859 19.3361 12.9974 19.1982 12.4991 19.1982C12.0008 19.1982 11.5123 19.3361 11.0875 19.5966C10.6628 19.8571 10.3184 20.2301 10.0925 20.6742C8.62171 20.2661 7.27905 19.4902 6.191 18.4197C6.46236 18.002 6.61286 17.5173 6.62585 17.0193C6.63885 16.5214 6.51383 16.0295 6.26463 15.5982C6.01543 15.1669 5.65177 14.8129 5.21388 14.5754C4.77598 14.338 4.28093 14.2263 3.7835 14.2527C3.599 13.5336 3.5 12.7794 3.5 12ZM7.8236 14.7C8.3906 15.6819 8.5526 16.8114 8.3312 17.8716C8.6984 18.1326 9.089 18.3585 9.4985 18.5466C10.3235 17.8076 11.3924 17.3992 12.5 17.4C13.634 17.4 14.6942 17.8239 15.5015 18.5466C15.911 18.3585 16.3016 18.1326 16.6688 17.8716C16.4415 16.788 16.6222 15.6586 17.1764 14.7C17.7296 13.7409 18.6173 13.0198 19.6694 12.675C19.711 12.226 19.711 11.774 19.6694 11.325C18.617 10.9804 17.7289 10.2592 17.1755 9.30001C16.6213 8.34144 16.4406 7.21204 16.6679 6.12841C16.3008 5.86734 15.91 5.64134 15.5006 5.45341C14.6758 6.19225 13.6073 6.60055 12.5 6.60001C11.3924 6.60078 10.3235 6.19245 9.4985 5.45341C9.08912 5.64135 8.6983 5.86734 8.3312 6.12841C8.55851 7.21204 8.37775 8.34144 7.8236 9.30001C7.27043 10.2591 6.38268 10.9802 5.3306 11.325C5.28898 11.774 5.28898 12.226 5.3306 12.675C6.38302 13.0197 7.27112 13.7408 7.8245 14.7H7.8236ZM12.5 14.7C11.7839 14.7 11.0972 14.4155 10.5908 13.9092C10.0845 13.4028 9.8 12.7161 9.8 12C9.8 11.2839 10.0845 10.5972 10.5908 10.0908C11.0972 9.58447 11.7839 9.30001 12.5 9.30001C13.2161 9.30001 13.9028 9.58447 14.4092 10.0908C14.9155 10.5972 15.2 11.2839 15.2 12C15.2 12.7161 14.9155 13.4028 14.4092 13.9092C13.9028 14.4155 13.2161 14.7 12.5 14.7ZM12.5 12.9C12.7387 12.9 12.9676 12.8052 13.1364 12.6364C13.3052 12.4676 13.4 12.2387 13.4 12C13.4 11.7613 13.3052 11.5324 13.1364 11.3636C12.9676 11.1948 12.7387 11.1 12.5 11.1C12.2613 11.1 12.0324 11.1948 11.8636 11.3636C11.6948 11.5324 11.6 11.7613 11.6 12C11.6 12.2387 11.6948 12.4676 11.8636 12.6364C12.0324 12.8052 12.2613 12.9 12.5 12.9Z" fill="#667085"/>
</svg>
