<svg width="42" height="43" viewBox="0 0 42 43" fill="none" xmlns="http://www.w3.org/2000/svg">
<rect y="0.949951" width="42" height="42" rx="21" fill="white" fill-opacity="0.1"/>
<path d="M26.4 28.7H25.05V27.35C25.05 26.8129 24.8366 26.2978 24.4569 25.9181C24.0771 25.5383 23.562 25.325 23.025 25.325H18.975C18.4379 25.325 17.9228 25.5383 17.5431 25.9181C17.1633 26.2978 16.95 26.8129 16.95 27.35V28.7H15.6V27.35C15.6 26.4549 15.9556 25.5964 16.5885 24.9635C17.2214 24.3305 18.0799 23.975 18.975 23.975H23.025C23.9201 23.975 24.7785 24.3305 25.4115 24.9635C26.0444 25.5964 26.4 26.4549 26.4 27.35V28.7ZM21 22.625C20.4681 22.625 19.9415 22.5202 19.4501 22.3167C18.9587 22.1131 18.5123 21.8148 18.1362 21.4387C17.7601 21.0627 17.4618 20.6162 17.2583 20.1248C17.0547 19.6335 16.95 19.1068 16.95 18.575C16.95 18.0431 17.0547 17.5165 17.2583 17.0251C17.4618 16.5337 17.7601 16.0873 18.1362 15.7112C18.5123 15.3351 18.9587 15.0368 19.4501 14.8333C19.9415 14.6297 20.4681 14.525 21 14.525C22.0741 14.525 23.1042 14.9517 23.8638 15.7112C24.6233 16.4707 25.05 17.5008 25.05 18.575C25.05 19.6491 24.6233 20.6792 23.8638 21.4387C23.1042 22.1983 22.0741 22.625 21 22.625ZM21 21.275C21.7161 21.275 22.4028 20.9905 22.9092 20.4842C23.4155 19.9778 23.7 19.291 23.7 18.575C23.7 17.8589 23.4155 17.1721 22.9092 16.6658C22.4028 16.1594 21.7161 15.875 21 15.875C20.2839 15.875 19.5971 16.1594 19.0908 16.6658C18.5844 17.1721 18.3 17.8589 18.3 18.575C18.3 19.291 18.5844 19.9778 19.0908 20.4842C19.5971 20.9905 20.2839 21.275 21 21.275Z" fill="white"/>
</svg>
