<svg width="25" height="24" viewBox="0 0 25 24" fill="none" xmlns="http://www.w3.org/2000/svg">
<path d="M14.3 14.0268V15.9078C13.4854 15.6198 12.6137 15.5315 11.7579 15.6502C10.9021 15.769 10.0873 16.0913 9.38189 16.5902C8.6765 17.0891 8.10111 17.7499 7.70405 18.5173C7.30699 19.2846 7.09984 20.136 7.1 21L5.3 20.9991C5.29972 19.9001 5.55103 18.8156 6.03467 17.8288C6.51831 16.8419 7.22145 15.9788 8.0902 15.3057C8.95895 14.6326 9.97026 14.1673 11.0466 13.9455C12.123 13.7236 13.2359 13.7512 14.3 14.0259V14.0268ZM12.5 12.9C9.5165 12.9 7.1 10.4835 7.1 7.50001C7.1 4.51651 9.5165 2.10001 12.5 2.10001C15.4835 2.10001 17.9 4.51651 17.9 7.50001C17.9 10.4835 15.4835 12.9 12.5 12.9ZM12.5 11.1C14.489 11.1 16.1 9.48901 16.1 7.50001C16.1 5.51101 14.489 3.90001 12.5 3.90001C10.511 3.90001 8.9 5.51101 8.9 7.50001C8.9 9.48901 10.511 11.1 12.5 11.1ZM17.7137 19.1226L20.8952 15.9411L22.1687 17.2137L17.7137 21.6687L14.5313 18.4863L15.8048 17.2137L17.7128 19.1226H17.7137Z" fill="#667085"/>
</svg>
