<svg width="18" height="18" viewBox="0 0 18 18" fill="none" xmlns="http://www.w3.org/2000/svg">
<path d="M14.4 12.375H15.75V13.725H2.25V12.375H3.6V7.65C3.6 6.21783 4.16893 4.84432 5.18162 3.83162C6.19432 2.81893 7.56783 2.25 9 2.25C10.4322 2.25 11.8057 2.81893 12.8184 3.83162C13.8311 4.84432 14.4 6.21783 14.4 7.65V12.375ZM13.05 12.375V7.65C13.05 6.57587 12.6233 5.54574 11.8638 4.78622C11.1043 4.0267 10.0741 3.6 9 3.6C7.92587 3.6 6.89574 4.0267 6.13622 4.78622C5.3767 5.54574 4.95 6.57587 4.95 7.65V12.375H13.05ZM6.975 15.075H11.025V16.425H6.975V15.075Z" fill="#667085"/>
</svg>
